<svg xmlns="http://www.w3.org/2000/svg" version="1.1" viewBox="0 0 318 49" width="318px" height="49px">
  <title>MullenLowe Profero</title>
  <g fill="none" fill-rule="evenodd" stroke="none" stroke-width="1">
    <g fill="#000" class="logo">
      <path d="M95.006 44.139c.933 0 1.497-.534 1.497-1.384 0-.864-.564-1.41-1.497-1.41h-1.534v2.794h1.534zm-1.534 1.345V49H92v-9h3.227C96.896 40 98 41.168 98 42.742c0 1.587-1.104 2.742-2.773 2.742h-1.755zM115.036 44.1c.9 0 1.482-.545 1.482-1.371 0-.838-.583-1.383-1.482-1.383h-1.566V44.1h1.566zm-.498 1.345h-1.068V49H112v-9h3.303c1.665 0 2.697 1.206 2.697 2.729 0 1.282-.741 2.26-1.944 2.564L118 49h-1.652l-1.81-3.555zM136.494 47.611c1.497 0 2.97-1.035 2.97-3.117 0-2.083-1.473-3.117-2.97-3.117-1.486 0-2.959 1.034-2.959 3.117 0 2.082 1.473 3.117 2.959 3.117zm0-7.611c2.322 0 4.506 1.669 4.506 4.494 0 2.837-2.184 4.506-4.506 4.506S132 47.331 132 44.494c0-2.825 2.172-4.494 4.494-4.494zM155 49v-9h6v1.434h-4.368v2.527h3.918v1.409h-3.918V49H155M177 49v-9h6v1.422h-4.356v2.386h3.945v1.384h-3.945v2.386H183V49h-6M197.036 44.1c.9 0 1.481-.545 1.481-1.371 0-.838-.582-1.383-1.481-1.383h-1.567V44.1h1.567zm-.498 1.345h-1.069V49H194v-9h3.303c1.665 0 2.697 1.206 2.697 2.729 0 1.282-.741 2.26-1.944 2.564L200 49h-1.653l-1.81-3.555zM219.494 47.611c1.497 0 2.971-1.035 2.971-3.117 0-2.083-1.474-3.117-2.971-3.117-1.486 0-2.959 1.034-2.959 3.117 0 2.082 1.473 3.117 2.959 3.117zm0-7.611c2.322 0 4.506 1.669 4.506 4.494 0 2.837-2.184 4.506-4.506 4.506S215 47.331 215 44.494c0-2.825 2.172-4.494 4.494-4.494zM14.905 18V5.383L10.263 18H7.646L3.004 5.484V18H0V0h4.141l4.847 12.998L13.722 0H18v18h-3.095M40 11.37V0h3.544v11.123c0 2.31 1.337 3.525 3.443 3.525 2.158 0 3.468-1.216 3.468-3.525V0H54v11.37c0 4.32-3.109 6.63-7.013 6.63C43.107 18 40 15.69 40 11.37M72 18V0h2.735v14.65H81V18h-9M103 18V0h2.735v14.65H112V18h-9M134 18V0h9v3.3h-6.203v4.113h5.615v3.123h-5.615V14.7H143V18h-9M177.645 18l-7.452-12.77V18H167V0h3.98l6.827 11.907V0H181v18h-3.355M200 18V0h2.735v14.65H209V18h-9M237.988 14.735c2.715 0 5.482-1.85 5.482-5.747 0-3.898-2.767-5.749-5.482-5.749-2.691 0-5.458 1.851-5.458 5.749 0 3.897 2.767 5.747 5.458 5.747zm0-14.735C242.753 0 247 3.435 247 9.012c0 5.553-4.247 8.988-9.012 8.988-4.74 0-8.988-3.435-8.988-8.988C229 3.435 233.247 0 237.988 0zM287.486 0H291l-4.886 18h-3.54l-4.037-12.82L274.5 18h-3.59L266 0h3.639l3.24 12.389L276.793 0h3.564l3.938 12.44L287.485 0M309 18V0h9v3.3h-6.203v4.113h5.615v3.123h-5.615V14.7H318V18h-9"></path>
    </g>
  </g>
</svg>